# xmcd
#
# Track frame offsets: 
#        150
#        11290
#        27665
#        46600
#        61867
#        82212
#        95875
#        117637
#        131872
#        152715
#        170165
#        180445
#        195112
#        226532
#        256965
#
# Disc length: 4010 seconds
#
# Revision: 2
# Processed by: cddbd v1.5.1PL2 Copyright (c) Steve Scherf et al.
# Submitted via: ExactAudioCopy v0.95b2
#
DISCID=c00fa80f
DTITLE=Various Artist - JAZZ and нк┴к - Gershwin Jazz
DYEAR=1998
DGENRE=Jazz
TTITLE0=Slim Gaillard - Oh, Lady be good
TTITLE1=Lee Konitz, Jimmy Giuffre - Someone to watch over me
TTITLE2=Billie Holiday - They can't take that away from me
TTITLE3=Ben Webster - Love is here to stay
TTITLE4=Oscar Peterson - Liza (All the clouds 'll roll away)
TTITLE5=Clifford Brown - Embraceable you
TTITLE6=Lester Young - The man I love
TTITLE7=Charlie Parker - I can't get started
TTITLE8=Joe Williams - Embraceable you
TTITLE9=Coleman Hawkins - Somebody loves me
TTITLE10=Kenny Burrell - Excerpt from 'Prelude No. 2"
TTITLE11=Chico O'Farrill - It ain't necessarily so
TTITLE12=Stan Getz - Summertime
TTITLE13=Bill Evans - My man's gone now
TTITLE14=Shirley Horn - I loves you Porgy, Here comes de honey man
EXTD=
EXTT0=
EXTT1=
EXTT2=
EXTT3=
EXTT4=
EXTT5=
EXTT6=
EXTT7=
EXTT8=
EXTT9=
EXTT10=
EXTT11=
EXTT12=
EXTT13=
EXTT14=
PLAYORDER=
